<svg xmlns="http://www.w3.org/2000/svg" viewBox="0 0 53 53"><defs><style>.cls-1{fill:#fff;}.cls-2{fill:#444b54;}</style></defs><title>Asset 2</title><g id="Layer_2" data-name="Layer 2"><g id="Layer_1-2" data-name="Layer 1"><path class="cls-1" d="M26.5,1.5a25,25,0,1,0,25,25A25,25,0,0,0,26.5,1.5Z"/><path class="cls-2" d="M26.5,53A26.5,26.5,0,1,1,53,26.5,26.55,26.55,0,0,1,26.5,53Zm0-50A23.5,23.5,0,1,0,50,26.5,23.47,23.47,0,0,0,26.5,3Z"/><path class="cls-2" d="M35.6,19.7,19.5,35.4a1.45,1.45,0,0,1-2.1-.1,1.66,1.66,0,0,1,0-2.1L33.5,17.6a1.45,1.45,0,0,1,2.1.1,1.42,1.42,0,0,1,0,2ZM33.3,35.6,17.6,19.5a1.48,1.48,0,0,1,2.1-2.1l.1.1,15.6,16a1.45,1.45,0,0,1-.1,2.1,1.42,1.42,0,0,1-2,0Z"/></g></g></svg>