<svg xmlns="http://www.w3.org/2000/svg" viewBox="0 0 53 53"><defs><style>{`.cls-1{fill:#fff;}.cls-2{fill:#444b54;}`}</style></defs><title>Asset 1</title><g id="Layer_2" data-name="Layer 2"><g id="Layer_1-2" data-name="Layer 1"><path class="cls-1" d="M26.5,1.5a25,25,0,1,0,25,25A25,25,0,0,0,26.5,1.5Z"/><path class="cls-2" d="M26.5,53A26.5,26.5,0,1,1,53,26.5,26.55,26.55,0,0,1,26.5,53Zm0-50A23.5,23.5,0,1,0,50,26.5,23.54,23.54,0,0,0,26.5,3Z"/><path class="cls-2" d="M37.75,20.5H15.25a1.5,1.5,0,0,1,0-3h22.5a1.5,1.5,0,0,1,0,3Zm0,7.5H15.25a1.5,1.5,0,0,1,0-3h22.5a1.5,1.5,0,0,1,0,3Z"/><path class="cls-2" d="M37.75,35.5H15.25a1.5,1.5,0,0,1,0-3h22.5a1.5,1.5,0,0,1,0,3Z"/></g></g></svg>